#Comment line ignore any data following # character 
#Hierarchical Translation and Rotation (.htr) file 
[Header]	
#Header keywords are followed by a single value 
FileType HTR		#Single word string
DataType HTRS		#Translation followed by rotation and scale data
FileVersion 1		#integer
NumSegments 25		#integer
NumFrames 5		#integer
DataFrameRate 30		#integer, data frame rate in this file
EulerRotationOrder ZYX
CalibrationUnits mm
RotationUnits Degrees
GlobalAxisofGravity Y
BoneLengthAxis Y
ScaleFactor 1.00
[SegmentNames&Hierarchy]
#CHILD	PARENT
BN_Tick_Root GLOBAL
BN_Torso BN_Tick_Root
BN_L_Leg_Front01 BN_Torso
BN_L_Leg_Rear01 BN_Torso
BN_MetalTop BN_Torso
BN_Neck BN_Torso
BN_R_Leg_Front01 BN_Torso
BN_R_Leg_Rear01 BN_Torso
BN_Sack BN_Torso
BN_L_Leg_Front02 BN_L_Leg_Front01
BN_L_Leg_Front03 BN_L_Leg_Front02
BN_L_Leg_Rear02 BN_L_Leg_Rear01
BN_L_Leg_Rear03 BN_L_Leg_Rear02
BN_Head BN_Neck
BN_Needle BN_Head
BN_R_Leg_Front02 BN_R_Leg_Front01
BN_R_Leg_Front03 BN_R_Leg_Front02
BN_R_Leg_Rear02 BN_R_Leg_Rear01
BN_R_Leg_Rear03 BN_R_Leg_Rear02
BN_SackDef01 BN_Sack
BN_SackDef02 BN_Sack
BN_SackDef03 BN_Sack
BN_SackDef04 BN_Sack
BN_SackDef05 BN_Sack
BN_SackDef06 BN_Sack
[BasePosition]
#SegmentName Tx, Ty, Tz, Rx, Ry, Rz, BoneLength
BN_Tick_Root 0.000000 0.000000 0.000000 -90.000000 0.000000 0.000000 10.000000 
BN_Torso 0.000000 0.000000 0.000000 0.000000 0.000000 0.000000 10.000000 
BN_L_Leg_Front01 0.000000 0.000000 0.000000 0.000000 0.000000 0.000000 10.000000 
BN_L_Leg_Rear01 0.000000 0.000000 0.000000 0.000000 0.000000 0.000000 10.000000 
BN_MetalTop 0.000000 0.000000 0.000000 0.000000 0.000000 0.000000 10.000000 
BN_Neck 0.000000 0.000000 0.000000 0.000000 0.000000 0.000000 10.000000 
BN_R_Leg_Front01 0.000000 0.000000 0.000000 0.000000 0.000000 0.000000 10.000000 
BN_R_Leg_Rear01 0.000000 0.000000 0.000000 0.000000 0.000000 0.000000 10.000000 
BN_Sack 0.000000 0.000000 0.000000 0.000000 0.000000 0.000000 10.000000 
BN_L_Leg_Front02 0.000000 0.000000 0.000000 0.000000 0.000000 0.000000 10.000000 
BN_L_Leg_Front03 0.000000 0.000000 0.000000 0.000000 0.000000 0.000000 10.000000 
BN_L_Leg_Rear02 0.000000 0.000000 0.000000 0.000000 0.000000 0.000000 10.000000 
BN_L_Leg_Rear03 0.000000 0.000000 0.000000 0.000000 0.000000 0.000000 10.000000 
BN_Head 0.000000 0.000000 0.000000 0.000000 0.000000 0.000000 10.000000 
BN_Needle 0.000000 0.000000 0.000000 0.000000 0.000000 0.000000 10.000000 
BN_R_Leg_Front02 0.000000 0.000000 0.000000 0.000000 0.000000 0.000000 10.000000 
BN_R_Leg_Front03 0.000000 0.000000 0.000000 0.000000 0.000000 0.000000 10.000000 
BN_R_Leg_Rear02 0.000000 0.000000 0.000000 0.000000 0.000000 0.000000 10.000000 
BN_R_Leg_Rear03 0.000000 0.000000 0.000000 0.000000 0.000000 0.000000 10.000000 
BN_SackDef01 0.000000 0.000000 0.000000 0.000000 0.000000 0.000000 10.000000 
BN_SackDef02 0.000000 0.000000 0.000000 0.000000 0.000000 0.000000 10.000000 
BN_SackDef03 0.000000 0.000000 0.000000 0.000000 0.000000 0.000000 10.000000 
BN_SackDef04 0.000000 0.000000 0.000000 0.000000 0.000000 0.000000 10.000000 
BN_SackDef05 0.000000 0.000000 0.000000 0.000000 0.000000 0.000000 10.000000 
BN_SackDef06 0.000000 0.000000 0.000000 0.000000 0.000000 0.000000 10.000000 
#Beginning of Data. Separated by tabs
#Fr	Tx	Ty	Tz	Rx	Ry	Rz	SF
[BN_Tick_Root]
63 -75.789825 603.662415 -0.000035 0.000000 -0.000000 2.191874 608.401550
64 -150.935410 630.005859 -0.000035 0.000000 0.000000 -3.827111 647.833984
65 -228.657364 659.844116 -0.000035 0.000000 0.000000 -10.052490 698.339722
66 -303.803101 692.316589 -0.000036 0.000000 0.000000 -16.071516 756.041382
67 -371.220245 726.562866 -0.000036 0.000000 0.000000 -21.471497 815.903198
[BN_Torso]
63 -110.072731 91.507568 190.982452 0.001505 0.001801 -10.239627 238.671188
64 -116.079475 88.446640 196.686691 0.001509 0.001798 -9.996365 244.914078
65 -119.849182 81.602173 202.390930 0.001516 0.001792 -9.554602 248.967514
66 -125.040398 72.110184 208.095154 0.001520 0.001789 -9.311424 253.255936
67 -135.452942 59.305141 213.799362 0.001514 0.001794 -9.693532 259.951477
[BN_L_Leg_Front01]
63 -68.477791 10.734189 -26.804373 -52.710117 40.705276 142.313141 74.316254
64 -68.477791 10.734189 -26.804373 -50.791332 47.294689 141.648041 74.316254
65 -68.477791 10.734189 -26.804373 -52.572968 41.216408 143.570511 74.316254
66 -68.477791 10.734189 -26.804373 -54.630665 32.460117 148.348679 74.316254
67 -68.477791 10.734189 -26.804373 -53.006351 39.534786 148.283600 74.316254
[BN_L_Leg_Rear01]
63 -72.133743 -73.994843 -18.268616 65.656052 38.046959 -144.056641 104.939293
64 -72.133743 -73.994843 -18.268616 64.237190 46.675346 -145.578995 104.939293
65 -72.133743 -73.994843 -18.268616 65.374298 39.919605 -146.857254 104.939293
66 -72.133743 -73.994843 -18.268616 66.390320 32.507370 -145.630005 104.939293
67 -72.133743 -73.994843 -18.268616 65.050797 41.992378 -138.210815 104.939293
[BN_MetalTop]
63 0.000008 13.737477 26.403606 89.998573 -12.929121 -90.001572 29.763546
64 0.000008 13.737477 26.403606 89.998573 -12.929121 -90.001572 29.763546
65 0.000008 13.737477 26.403606 89.998573 -12.929123 -90.001564 29.763546
66 0.000008 13.737477 26.403606 89.998581 -12.929120 -90.001572 29.763546
67 0.000008 13.737477 26.403606 89.998581 -12.929132 -90.001587 29.763546
[BN_Neck]
63 0.000014 95.233284 10.002091 -129.569183 -80.787094 118.871506 95.757088
64 0.000014 95.233284 10.002091 -129.569153 -80.787079 118.871483 95.757088
65 0.000014 95.233284 10.002091 -129.569153 -80.787079 118.871483 95.757088
66 0.000014 95.233284 10.002091 -129.569153 -80.787079 118.871483 95.757088
67 0.000014 95.233284 10.002091 -126.064941 -75.678802 120.784126 95.757088
[BN_R_Leg_Front01]
63 68.477768 10.734107 -26.804314 55.720905 26.972488 27.543110 74.316193
64 68.477768 10.734107 -26.804314 54.233463 34.327557 30.703648 74.316193
65 68.477768 10.734107 -26.804314 52.737034 40.611481 33.762585 74.316193
66 68.477768 10.734107 -26.804314 54.184361 34.536545 39.103371 74.316193
67 68.477768 10.734107 -26.804314 55.513485 28.053345 43.430183 74.316193
[BN_R_Leg_Rear01]
63 72.133751 -73.994873 -18.268644 -66.477333 31.838173 -68.905548 104.939331
64 72.133751 -73.994873 -18.268644 -66.273552 33.428623 -96.901100 104.939331
65 72.133751 -73.994873 -18.268644 -65.146362 41.425636 -88.046539 104.939331
66 72.133751 -73.994873 -18.268644 -63.185410 51.683250 -68.204117 104.939331
67 72.133751 -73.994873 -18.268644 -63.707703 49.320412 -43.951752 104.939331
[BN_Sack]
63 -0.000000 -78.024918 33.657791 92.288322 -4.292161 -90.159042 84.974907
64 -0.000000 -78.024918 33.657791 92.495552 -5.681184 -90.207962 84.974907
65 -0.000000 -78.024918 33.657791 92.704529 -7.070035 -90.262077 84.974907
66 -0.000000 -78.024918 33.657791 92.808838 -8.399722 -90.303215 84.974907
67 -0.000000 -78.024918 33.657791 92.776283 -9.421996 -90.326401 84.974907
[BN_L_Leg_Front02]
63 142.805023 -0.000015 -0.000104 -3.571238 -4.743269 -79.587219 142.805023
64 142.805023 -0.000015 -0.000104 -2.643798 -9.470125 -104.695213 142.805023
65 142.805023 -0.000015 -0.000104 -0.693439 -9.496582 -118.581032 142.805023
66 142.805023 -0.000015 -0.000104 -0.326985 -8.919636 -121.106575 142.805023
67 142.805023 -0.000015 -0.000104 1.107407 -7.951331 -133.582535 142.805023
[BN_L_Leg_Front03]
63 124.143021 -0.000045 0.000007 0.351412 -0.447382 84.014748 124.143021
64 124.143021 -0.000045 0.000007 0.352257 -0.409905 113.724792 124.143021
65 124.143021 -0.000045 0.000007 0.354646 -0.360536 126.633087 124.143021
66 124.143021 -0.000045 0.000007 0.350498 -0.349300 128.727539 124.143021
67 124.143021 -0.000045 0.000007 0.355132 -0.299959 138.046295 124.143021
[BN_L_Leg_Rear02]
63 139.939041 0.000075 -0.000022 1.176956 -4.800974 102.157387 139.939041
64 139.939041 0.000075 -0.000022 0.080443 -0.224124 94.846176 139.939041
65 139.939041 0.000075 -0.000022 1.189394 -4.865935 102.197929 139.939041
66 139.939041 0.000075 -0.000022 1.116841 -7.919052 109.158539 139.939041
67 139.939041 0.000075 -0.000022 0.893989 -7.790266 111.014748 139.939041
[BN_L_Leg_Rear03]
63 142.839615 0.000179 -0.000060 0.000638 -0.002259 -121.521049 142.839615
64 142.839615 0.000179 -0.000060 0.000478 -0.002298 -113.507996 142.839615
65 142.839615 0.000179 -0.000060 0.000638 -0.002259 -121.560226 142.839615
66 142.839615 0.000179 -0.000060 0.000772 -0.002217 -128.392273 142.839615
67 142.839615 0.000179 -0.000060 0.000804 -0.002205 -130.073044 142.839615
[BN_Head]
63 57.062447 -0.000030 0.000000 -10.582688 -5.610765 -15.874644 57.062447
64 57.062447 -0.000030 0.000000 -10.582688 -5.610765 -15.874644 57.062447
65 57.062447 -0.000030 0.000000 -10.582688 -5.610765 -15.874644 57.062447
66 57.062447 -0.000030 0.000000 -10.582688 -5.610765 -15.874644 57.062447
67 57.062447 -0.000030 0.000000 -5.750757 -8.166550 -11.733627 57.062447
[BN_Needle]
63 33.915279 69.677689 -0.000021 0.000003 0.000030 87.896805 77.493401
64 33.915279 69.677689 -0.000020 0.000003 0.000030 87.896805 77.493401
65 33.915279 69.677689 -0.000020 0.000003 0.000030 87.896805 77.493401
66 33.915279 69.677689 -0.000019 0.000003 0.000030 87.896805 77.493401
67 33.915279 69.677689 -0.000019 0.000003 0.000030 87.896805 77.493401
[BN_R_Leg_Front02]
63 142.804947 -0.000060 0.000060 4.514447 -8.808471 91.091766 142.804947
64 142.804947 -0.000060 0.000060 3.431820 -4.772064 81.029472 142.804947
65 142.804947 -0.000060 0.000060 -0.208702 0.040288 67.517174 142.804947
66 142.804947 -0.000060 0.000060 4.352351 -4.435761 71.118690 142.804947
67 142.804947 -0.000060 0.000060 7.511216 -7.228279 69.527184 142.804947
[BN_R_Leg_Front03]
63 124.143005 -0.000060 -0.000156 -0.351936 -0.443129 -98.743889 124.143005
64 124.143005 -0.000060 -0.000156 -0.351902 -0.447010 -85.911041 124.143005
65 124.143005 -0.000060 -0.000156 -0.354181 -0.411316 -67.174202 124.143005
66 124.143005 -0.000060 -0.000156 -0.352613 -0.428029 -72.468918 124.143005
67 124.143005 -0.000060 -0.000156 -0.352595 -0.423449 -70.616074 124.143005
[BN_R_Leg_Rear02]
63 139.939011 -0.000149 0.000015 0.038665 -0.271371 -129.809433 139.939011
64 139.939011 -0.000149 0.000015 0.914949 -5.117509 -132.688782 139.939011
65 139.939011 -0.000149 0.000015 0.068937 -8.034140 -119.941704 139.939011
66 139.939011 -0.000149 0.000015 -1.881745 -7.514615 -101.758369 139.939011
67 139.939011 -0.000149 0.000015 -2.778490 -6.702501 -91.736603 139.939011
[BN_R_Leg_Rear03]
63 142.839417 0.000075 0.000119 0.002088 -0.001072 144.375824 142.839417
64 142.839417 0.000075 0.000119 0.002071 -0.001105 146.149445 142.839417
65 142.839417 0.000075 0.000119 0.002149 -0.000944 137.438599 142.839417
66 142.839417 0.000075 0.000119 0.002261 -0.000631 121.183044 142.839417
67 142.839417 0.000075 0.000119 0.002311 -0.000409 110.081497 142.839417
[BN_SackDef01]
63 249.782272 -3.760844 42.949425 -128.408218 -44.374973 -11.740845 253.475800
64 249.782272 -3.760844 42.949425 -128.408218 -44.374973 -11.740845 253.475800
65 249.782272 -3.760844 42.949425 -128.408218 -44.374973 -11.740845 253.475800
66 249.782272 -3.760844 42.949425 -128.408218 -44.374973 -11.740845 253.475800
67 249.782272 -3.760844 42.949425 -128.408218 -44.374973 -11.740845 253.475800
[BN_SackDef02]
63 138.789795 -62.131748 45.674385 32.077126 -27.375721 -88.781525 158.773758
64 138.789795 -62.131748 45.674385 32.077126 -27.375721 -88.781525 158.773758
65 138.789795 -62.131748 45.674385 32.077126 -27.375721 -88.781525 158.773758
66 138.789795 -62.131748 45.674385 32.077126 -27.375721 -88.781525 158.773758
67 138.789795 -62.131748 45.674385 32.077126 -27.375721 -88.781525 158.773758
[BN_SackDef03]
63 249.782272 -3.760785 -42.949661 18.144459 44.375008 -11.740894 253.475845
64 249.782272 -3.760785 -42.949661 18.144459 44.375008 -11.740894 253.475845
65 249.782272 -3.760785 -42.949661 18.144459 44.375008 -11.740894 253.475845
66 249.782272 -3.760785 -42.949661 18.144459 44.375008 -11.740894 253.475845
67 249.782272 -3.760785 -42.949661 18.144459 44.375008 -11.740894 253.475845
[BN_SackDef04]
63 138.789780 -62.131645 -45.674473 146.059982 27.375723 -88.781555 158.773743
64 138.789780 -62.131645 -45.674473 146.059982 27.375723 -88.781555 158.773743
65 138.789780 -62.131645 -45.674473 146.059982 27.375723 -88.781555 158.773743
66 138.789780 -62.131645 -45.674473 146.059982 27.375723 -88.781555 158.773743
67 138.789780 -62.131645 -45.674473 146.059982 27.375723 -88.781555 158.773743
[BN_SackDef05]
63 118.790161 46.167137 -63.831196 0.155741 51.314110 90.605110 142.537460
64 118.790161 46.167137 -63.831196 0.155741 51.314110 90.605110 142.537460
65 118.790161 46.167137 -63.831196 0.155741 51.314110 90.605110 142.537460
66 118.790161 46.167137 -63.831196 0.155741 51.314110 90.605110 142.537460
67 118.790161 46.167137 -63.831196 0.155741 51.314110 90.605110 142.537460
[BN_SackDef06]
63 118.790207 46.167194 63.831219 152.058487 -51.314072 90.605019 142.537537
64 118.790207 46.167194 63.831219 152.058487 -51.314072 90.605019 142.537537
65 118.790207 46.167194 63.831219 152.058487 -51.314072 90.605019 142.537537
66 118.790207 46.167194 63.831219 152.058487 -51.314072 90.605019 142.537537
67 118.790207 46.167194 63.831219 152.058487 -51.314072 90.605019 142.537537
